# xmcd
#
# Track frame offsets: 
#        150
#        18544
#        36509
#        51954
#        73036
#        92605
#        124802
#        152150
#
# Disc length: 2350 seconds
#
# Revision: 1
# Processed by: cddbd v1.5.2PL0 Copyright (c) Steve Scherf et al.
# Submitted via: ExactAudioCopy v0.99pb4
#
DISCID=6c092c08
DTITLE=Sonny Stitt - Sits In With The Oscar Peterson Trio
DYEAR=1959
DGENRE=Jazz
TTITLE0=I Can't Give Anything But Love
TTITLE1=Au Privave
TTITLE2=The Gypsy
TTITLE3=I'll Remember April
TTITLE4=Scrapple From The Apple
TTITLE5=Moten Swing
TTITLE6=Blues For Pres, Sweets, Ben And All The Other Funky Ones
TTITLE7=Easy Does It
EXTD=YEAR: 2008
EXTT0=
EXTT1=
EXTT2=
EXTT3=
EXTT4=
EXTT5=
EXTT6=
EXTT7=
PLAYORDER=
